<svg xmlns="http://www.w3.org/2000/svg" viewBox="0 0 128 128" width="512" height="512">
  <defs>
    <linearGradient id="g2" x1="0" x2="1" y1="0" y2="1">
      <stop offset="0" stop-color="#1e90ff"/>
      <stop offset="1" stop-color="#0062b3"/>
    </linearGradient>
  </defs>
  <rect width="128" height="128" rx="24" fill="none"/>
  <g transform="translate(12,12)">
    <path d="M52 0C23.4 0 0 20.7 0 46.2 0 59.8 6.9 71.5 18 79.8V96c0 3.3 3.6 5.6 6.4 3.7L40.8 86c5.9 1.6 12.3 2.5 19.2 2.5 28.6 0 52-20.7 52-46.2S80.6 0 52 0z" fill="url(#g2)"/>
    <g transform="translate(10,20)">
      <circle cx="12" cy="8" r="6" fill="#fff" opacity="0.98"/>
      <circle cx="44" cy="8" r="6" fill="#fff" opacity="0.98"/>
      <path d="M8 26c6 6 18 6 24 0" stroke="#fff" stroke-width="3" stroke-linecap="round" fill="none" opacity="0.98"/>
    </g>
  </g>
</svg>